/* XPM */
static char *magick[] = {
/* columns rows colors chars-per-pixel */
"32 32 256 2",
"   c None",
".  c #808ec3",
"X  c #fdfdfd",
"o  c #f7f8fb",
"O  c #abb5d7",
"+  c #fcfdfe",
"@  c #eef0f7",
"#  c #97a2cb",
"$  c #f8f9fc",
"%  c #9fa9cd",
"&  c #dee2ef",
"*  c #b7c0dd",
"=  c #818fc3",
"-  c #f9fafc",
";  c #fefeff",
":  c #7e8cc2",
">  c #fafbfd",
",  c #fdfdfe",
"<  c #fefefe",
"1  c #f9f9fc",
"2  c #97a3cb",
"3  c #fbfcfd",
"4  c #e3e6f2",
"5  c #f8f9fb",
"6  c #7b8ac1",
"7  c #dfe3f0",
"8  c #b0b9da",
"9  c #fcfcfd",
"0  c #7f8dc3",
"q  c #cbd0e6",
"w  c #7d8bc2",
"e  c #fbfbfd",
"r  c #fafbfc",
"t  c #7584be",
"y  c #6c7cba",
"u  c #7988bf",
"i  c #7c8ac1",
"p  c #a6b0d5",
"a  c #7685be",
"s  c #7987bf",
"d  c #e3e6f1",
"f  c #bbc3df",
"g  c #8693c6",
"h  c #8d96b8",
"j  c #8491c5",
"k  c #aab3d7",
"l  c #7b89c0",
"z  c #a0abd3",
"x  c #7686bf",
"c  c #f2f3f9",
"v  c #7786bf",
"b  c #b5bcdc",
"n  c #687ab9",
"m  c #f0f2f8",
"M  c #aab4d7",
"N  c #a3accf",
"B  c #b9c2de",
"V  c #f1f3f9",
"C  c #9da9d0",
"Z  c #7887bf",
"A  c #c6cde4",
"S  c #8d99c9",
"D  c #a0aacd",
"F  c #fcfdfd",
"G  c #9faad2",
"H  c #fffefe",
"J  c #dce0ed",
"K  c #7b89c2",
"L  c #e6e9f3",
"P  c #b6bfdb",
"I  c #d4d8ea",
"U  c #8f98b8",
"Y  c #d5daec",
"T  c #8592c5",
"R  c #f7f8fc",
"E  c #a7b1d5",
"W  c #fbfbfb",
"Q  c #b7bfde",
"!  c #b5bddc",
"~  c #7d8bc1",
"^  c #707fbb",
"/  c #7382be",
"(  c #7483bd",
")  c #bac3df",
"_  c #aab2d6",
"`  c #e5e7f3",
"'  c #d9dcec",
"]  c #bdc5e0",
"[  c #828fc4",
"{  c #e8ebf4",
"}  c #abb4d6",
"|  c #7887c0",
" . c #98a3ce",
".. c #eff0f7",
"X. c #ced4e8",
"o. c #808dc3",
"O. c #7e8cc3",
"+. c #adb6d8",
"@. c #ced3e7",
"#. c #b4bbdb",
"$. c #bec4e0",
"%. c #8993bd",
"&. c #ced3e8",
"*. c #d3d8ea",
"=. c #7f8ec3",
"-. c #b0bada",
";. c #828fc3",
":. c #eff1f7",
">. c #acb5d7",
",. c #95a0ca",
"<. c #edeef6",
"1. c #acb5d8",
"2. c #6778b7",
"3. c #b4bcdc",
"4. c #b7bfdd",
"5. c #fafafd",
"6. c #fdfeff",
"7. c #99999a",
"8. c #8f97b9",
"9. c #7f8dc2",
"0. c #dde2ef",
"q. c #7786be",
"w. c #d0d6e9",
"e. c #929ecc",
"r. c #cfd4e8",
"t. c #aeb7d9",
"y. c #bcc4e0",
"u. c #9da7cd",
"i. c #f6f7fa",
"p. c #eef1f7",
"a. c #e8eaf4",
"s. c #edeff6",
"d. c #8895c7",
"f. c #7785be",
"g. c #e4e6f1",
"h. c #e6eaf4",
"j. c #7381bd",
"k. c #7180bc",
"l. c #fdfcfd",
"z. c #9fa9cc",
"x. c #97a3ce",
"c. c #c0c6e2",
"v. c #96a1cc",
"b. c #94a0cd",
"n. c #7b8ac0",
"m. c #939fca",
"M. c #a2abcd",
"N. c #959fcd",
"B. c #7c8bc1",
"V. c #a0abd0",
"C. c #a0a9cd",
"Z. c #9198b4",
"A. c #7080bb",
"S. c #7c8bc0",
"D. c #f5f6f9",
"F. c #eceef5",
"G. c #afb8d8",
"H. c #a5b0d4",
"J. c #7684be",
"K. c #7484be",
"L. c #97a2ca",
"P. c #a9b3d6",
"I. c #7a88c0",
"U. c #f4f6fa",
"Y. c #7886bf",
"T. c #f6f7fb",
"R. c #818ec4",
"E. c #9ca7ce",
"W. c #6a7ab9",
"Q. c #c5cbe3",
"!. c #d7dbec",
"~. c #8d94b0",
"^. c #d5daeb",
"/. c #919ab7",
"(. c #e2e6f1",
"). c #b8c0dd",
"_. c #8c97c1",
"`. c #e9ecf5",
"'. c #b8c1de",
"]. c #9195a7",
"[. c #7584bd",
"{. c #7585be",
"}. c #8a97c8",
"|. c #bcc4df",
" X c #aeb7d8",
".X c #c8cde5",
"XX c #bac0de",
"oX c #7b8bc1",
"OX c #7988c0",
"+X c #d8ddec",
"@X c #7383bc",
"#X c #eaebf4",
"$X c #6d7dba",
"%X c #abb5d8",
"&X c #e7e9f4",
"*X c #9ea9d1",
"=X c #dee1f0",
"-X c #c4cae2",
";X c #8391c5",
":X c #fffeff",
">X c #8d96b6",
",X c #b3bbdb",
"<X c #fbfbfc",
"1X c #818ec3",
"2X c #7e8cc1",
"3X c #edf0f7",
"4X c #b3bcda",
"5X c #a1acd3",
"6X c #b8bede",
"7X c #7b89c1",
"8X c #c1c8e1",
"9X c #ccd2e7",
"0X c None",
"qX c None",
"wX c None",
"eX c None",
"rX c None",
"tX c None",
"yX c None",
"uX c None",
"iX c None",
"pX c None",
"aX c None",
"sX c None",
"dX c None",
"fX c None",
"gX c None",
"hX c None",
"jX c None",
"kX c None",
"lX c None",
"zX c None",
"xX c None",
"cX c None",
"vX c None",
"bX c None",
"nX c None",
"mX c None",
"MX c None",
"NX c None",
"BX c None",
"VX c None",
"CX c None",
"ZX c None",
"AX c None",
"SX c None",
"DX c None",
"FX c None",
"GX c None",
"HX c None",
"JX c None",
"KX c None",
"LX c None",
"PX c None",
"IX c None",
"UX c None",
/* pixels */
"0X0X0X0X0X0X0X0X0X0X0X0X0X0X0X0X0X0X0X0X0X0X0X0X0X0X0X0X0X0X0X0X",
"0X0X0X0X0X0X0X0X0X0X0X0X0X0X0X0X0X0X0X0X0X0X0X0X0X0X0X0X0X0X0X0X",
"0X0X0X0X0X0X0X0X%.v.2 # # 2 2 # # # # # # # # # # # # # # # # L.",
"0X0X0X0X0X0X0X7.u.#X..@ @ V :.@ @ @ @ @ @ @ @ @ @ @ @ @ @ @ @ F.",
"0X0X0X0X0X0X0X0XM.,       &Xr                                 X ",
"0X0X0X0X0X].h h V.$     Y ;X-.-                               X ",
"0X0X0X0X0X>Xc.&.E 1 T.Q.. x OX_ c                             X ",
"0X0X0X0X0X/.`.  1.> 8 y s = w W.G -                           X ",
"0X0X0X0X0XZ.d + %X> q d.. . [ . ) 3                           X ",
"0X0X~.8.U _.d 6.O 5   m X.O.#.<.,                             X ",
"0X0X,.@.I H.4 7 5X5     r.n z ;                               X ",
"0X0XN H   B 4 *.C $     9Xb.>.c                               X ",
"0X0X% $   * & > P.5     e R 1 <                 :X            X ",
"0X0X% -   ! 0.+ O o                           h.4.o           X ",
"0X0XC.e A }.(.+ O o                         < G.2.XX,         X ",
"0X0XD 3 8 . g.+ O o                         8XoX6 I.$.;       X ",
"0X0X% - 5.k 7 + O o                     $ Q 6 6 ;.i u 6X3     X ",
"0X0X% $   '.& + O o                   7 z Y.~ = . . w f.k p.  X ",
"0X0X% $   * & + O o               o f R.t 0 . . . . = 2X( e.=XX ",
"0X0X% $   * & + O o             U.p ^ 7X. . . . . . . = =.J.j +X",
"0X0X% $   * & + O o             ).j.: = . . . . . . . . . = @XE.",
"0X0X% $   * & + O o             p k.0 1X= . . . . . . . = = t m.",
"0X0X% $   * & + O o             { N.A.v l : . . . . . : | / i -X",
"0X0X% $   * & + O o               3Xy.*Xj v x o.. 9.a u S +.' <X",
"0X0X% $   * & + O o                   - 4 w.,X. S.g ] ^.s.    X ",
"0X0X% $   * & + O o                         !.K l = L         X ",
"0X0X% $   * & + O o                         M {.. q.4X;       X ",
"0X0X% $   * & + O o                       - x.s = Z  .1       X ",
"0X0X% $   * & + O o                       ` g n.= B.T a.      X ",
"0X0X% $   * & + O o                       |.$X[.a K.y f       X ",
"0X0X% $   * & + O o                     ; q  Xb 3.b t..X<     X ",
"0X0Xz.i.X P J r } D.X X X X X X X X X X F 9 X X X X X l.9 X X W "
};
